<svg width="23" height="23" viewBox="0 0 23 23" fill="none" xmlns="http://www.w3.org/2000/svg">
<path d="M2.55556 0C1.13722 0 0 1.13722 0 2.55556V20.4444C0 21.1222 0.269245 21.7722 0.748505 22.2515C1.22776 22.7308 1.87778 23 2.55556 23H20.4444C21.1222 23 21.7722 22.7308 22.2515 22.2515C22.7308 21.7722 23 21.1222 23 20.4444V11.5H20.4444V20.4444H2.55556V2.55556H11.5V0H2.55556ZM18.8856 1.27778C18.6683 1.27778 18.4383 1.36722 18.2722 1.53333L16.7133 3.07944L19.9078 6.27389L21.4667 4.72778C21.7989 4.39556 21.7989 3.83333 21.4667 3.51389L19.4861 1.53333C19.32 1.36722 19.1028 1.27778 18.8856 1.27778ZM15.8061 3.98667L6.38889 13.4167V16.6111H9.58333L19.0006 7.18111L15.8061 3.98667Z" fill="#EAE8DC"/>
</svg>
